<?xml version="1.0" encoding="UTF-8" standalone="no"?>
<!-- Created with Inkscape (http://www.inkscape.org/) -->

<svg
   xmlns:dc="http://purl.org/dc/elements/1.1/"
   xmlns:cc="http://creativecommons.org/ns#"
   xmlns:rdf="http://www.w3.org/1999/02/22-rdf-syntax-ns#"
   xmlns:svg="http://www.w3.org/2000/svg"
   xmlns="http://www.w3.org/2000/svg"
   xmlns:sodipodi="http://sodipodi.sourceforge.net/DTD/sodipodi-0.dtd"
   xmlns:inkscape="http://www.inkscape.org/namespaces/inkscape"
   width="150"
   height="150"
   viewBox="0 0 39.687499 39.687501"
   version="1.1"
   id="svg8"
   inkscape:version="0.92.3 (2405546, 2018-03-11)"
   sodipodi:docname="help_black.svg">
  <defs
     id="defs2" />
  <sodipodi:namedview
     id="base"
     pagecolor="#ffffff"
     bordercolor="#666666"
     borderopacity="1.0"
     inkscape:pageopacity="0.0"
     inkscape:pageshadow="2"
     inkscape:zoom="11.713333"
     inkscape:cx="52.205463"
     inkscape:cy="75"
     inkscape:document-units="mm"
     inkscape:current-layer="layer1"
     showgrid="false"
     units="px"
     showborder="false"
     inkscape:window-width="3840"
     inkscape:window-height="2004"
     inkscape:window-x="-16"
     inkscape:window-y="-16"
     inkscape:window-maximized="1"
     inkscape:pagecheckerboard="true" />
  <metadata
     id="metadata5">
    <rdf:RDF>
      <cc:Work
         rdf:about="">
        <dc:format>image/svg+xml</dc:format>
        <dc:type
           rdf:resource="http://purl.org/dc/dcmitype/StillImage" />
        <dc:title></dc:title>
      </cc:Work>
    </rdf:RDF>
  </metadata>
  <g
     inkscape:label="Layer 1"
     inkscape:groupmode="layer"
     id="layer1"
     transform="translate(0,-257.31248)">
    <circle
       style="opacity:1;fill:#003366;fill-opacity:0.00869565;stroke:#ffffff;stroke-width:0.26458332;stroke-linecap:round;stroke-linejoin:round;stroke-miterlimit:4;stroke-dasharray:none;stroke-opacity:1"
       id="path815-5"
       cx="19.8314"
       cy="277.02826"
       r="17.544102"
       inkscape:label="blue bgd" />
    <circle
       style="opacity:1;fill:#ffffff;fill-opacity:0.01739131;stroke:#000000;stroke-width:2.3812499;stroke-linecap:round;stroke-linejoin:round;stroke-miterlimit:4;stroke-dasharray:none;stroke-opacity:1"
       id="path815"
       cx="19.821159"
       cy="277.14493"
       r="17.544102"
       inkscape:label="white bgd" />
  </g>
  <g
     inkscape:groupmode="layer"
     id="layer2"
     inkscape:label="Question mark">
    <g
       transform="translate(0,-257.31248)"
       aria-label="?"
       style="font-style:normal;font-weight:normal;font-size:35.47707367px;line-height:1.25;font-family:sans-serif;letter-spacing:0px;word-spacing:0px;fill:#050505;fill-opacity:1;stroke:none;stroke-width:0.88692689"
       id="text819"
       inkscape:label="?">
      <path
         d="m 11.217081,271.21453 q 0,-1.64567 1.05669,-3.32598 1.05669,-1.69763 3.083456,-2.80629 2.026767,-1.10866 4.729122,-1.10866 2.511805,0 4.434634,0.93543 1.92283,0.91811 2.962197,2.51181 1.056691,1.59369 1.056691,3.46455 0,1.47244 -0.606298,2.5811 -0.588975,1.10866 -1.420469,1.92283 -0.814171,0.79685 -2.944874,2.70235 -0.588975,0.53701 -0.952754,0.95276 -0.346455,0.39842 -0.519683,0.74488 -0.173228,0.32913 -0.277165,0.67559 -0.08661,0.32913 -0.277165,1.17795 -0.329133,1.80157 -2.061412,1.80157 -0.900785,0 -1.524405,-0.58898 -0.606298,-0.58897 -0.606298,-1.7496 0,-1.45511 0.450393,-2.51181 0.450392,-1.07401 1.195272,-1.87086 0.74488,-0.81417 2.009444,-1.92283 1.108658,-0.97007 1.593697,-1.45511 0.502361,-0.50236 0.831494,-1.10866 0.346455,-0.6063 0.346455,-1.31653 0,-1.38582 -1.039367,-2.33858 -1.022045,-0.95275 -2.650387,-0.95275 -1.905507,0 -2.806292,0.97008 -0.900785,0.95275 -1.524405,2.82361 -0.588975,1.95748 -2.23464,1.95748 -0.970077,0 -1.645665,-0.67559 -0.658266,-0.69292 -0.658266,-1.48976 z m 8.453521,18.98577 q -1.05669,0 -1.853538,-0.67558 -0.779526,-0.69292 -0.779526,-1.92283 0,-1.09134 0.762203,-1.83622 0.762203,-0.74488 1.870861,-0.74488 1.091336,0 1.836216,0.74488 0.74488,0.74488 0.74488,1.83622 0,1.21259 -0.779526,1.9055 -0.779525,0.69291 -1.80157,0.69291 z"
         style="font-style:normal;font-variant:normal;font-weight:normal;font-stretch:normal;font-size:35.47707367px;font-family:'Arial Rounded MT Bold';-inkscape-font-specification:'Arial Rounded MT Bold, Normal';font-variant-ligatures:normal;font-variant-caps:normal;font-variant-numeric:normal;font-feature-settings:normal;text-align:start;writing-mode:lr-tb;text-anchor:start;fill:#050505;fill-opacity:1;stroke-width:0.88692689"
         id="path838"
         inkscape:connector-curvature="0" />
    </g>
  </g>
</svg>
